<?xml version="1.0" encoding="UTF-8"?>
<svg width="441.98mm" height="224.35mm" version="1.1" viewBox="0 0 441.98 224.35" xmlns="http://www.w3.org/2000/svg" xmlns:cc="http://creativecommons.org/ns#" xmlns:dc="http://purl.org/dc/elements/1.1/" xmlns:rdf="http://www.w3.org/1999/02/22-rdf-syntax-ns#">
 <defs>
  <filter id="filter1727" x="-.5" y="-.5" width="2" height="2" color-interpolation-filters="sRGB">
   <feGaussianBlur result="result1" stdDeviation="0.01"/>
   <feBlend in2="result1" mode="multiply" result="fbSourceGraphic"/>
   <feTurbulence baseFrequency="0.8" numOctaves="3" result="result3" type="fractalNoise"/>
   <feDisplacementMap in="fbSourceGraphic" in2="result3" result="result2" scale="50" xChannelSelector="R" yChannelSelector="G"/>
   <feMorphology operator="dilate" radius="1" result="result4"/>
   <feBlend in2="result2" mode="screen"/>
  </filter>
 </defs>
 <metadata>
  <rdf:RDF>
   <cc:Work rdf:about="">
    <dc:format>image/svg+xml</dc:format>
    <dc:type rdf:resource="http://purl.org/dc/dcmitype/StillImage"/>
    <dc:title/>
   </cc:Work>
  </rdf:RDF>
 </metadata>
 <g transform="translate(19.463 -40.945)" display="none">
  <rect x="-19.463" y="40.945" width="441.98" height="224.35" display="inline" fill="#0a0"/>
  <rect x="-19.463" y="40.945" width="441.98" height="224.35" fill="#8dd35f" filter="url(#filter1727)"/>
  <rect x="282.39" y="35.946" width="22.876" height="235.83" fill="#1c2422" stroke="#fff" stroke-width=".76731"/>
  <g fill="#93a7ac">
   <rect x="-8.4505" y="61.644" width="23.186" height="130.4"/>
   <path transform="matrix(.26458 0 0 .26458 -19.463 40.945)" d="m194.9 82.016v174.37h348.61v-174.37zm119.19 32.977h55.785v63.162h-55.785z"/>
   <rect x="124.33" y="50.189" width="28.408" height="91.637"/>
   <rect x="116.27" y="141.82" width="78.827" height="48.107"/>
   <rect x="32.105" y="108.78" width="20.659" height="82.653"/>
   <rect x="52.779" y="141.82" width="63.501" height="31.698"/>
   <rect x="178.76" y="54.971" width="42.137" height="47.957"/>
  </g>
  <rect x="317.47" y="41.093" width="40.721" height="224.73" fill="#5d6c53"/>
  <rect x="292.7" y="28.178" width="1.4027" height="246" fill="none" stroke="#fff" stroke-width=".27338"/>
 </g>
 <g transform="translate(19.463 -40.945)" fill="none" stroke="#000">
  <g transform="translate(-19.463 40.945)">
   <rect x="336.94" y=".14732" width="40.722" height="74.556" stroke-width=".31221"/>
   <path transform="scale(.26458)" d="m1273.5 409.01v-126.67h153.91v281.79h-153.91v-131.13" stroke-width="1.18"/>
   <rect x="336.94" y="149.26" width="40.72" height="75.613" stroke-width=".31441"/>
  </g>
  <path transform="matrix(.26458 0 0 .26458 -19.463 40.945)" d="m226.08 256.38h46.906l-1e-5 7.6719" stroke-width="1.8898"/>
  <g stroke-width="1.9501">
   <path transform="matrix(.26458 0 0 .26458 -19.463 40.945)" d="m204.97 568.77h-10.066v-209.58"/>
   <path transform="matrix(.26458 0 0 .26458 -19.463 40.945)" d="m273.04 501.07-0.0595 67.702h-48.382"/>
   <path transform="matrix(.26458 0 0 .26458 -19.463 40.945)" d="m272.98 292.22-1e-5 175.4"/>
  </g>
  <path transform="matrix(.26458 0 0 .26458 -19.463 40.945)" d="m194.9 320.74-1e-5 -64.355 11.543-1e-5" stroke-width="1.8898"/>
  <path transform="matrix(.26458 0 0 .26458 -19.463 40.945)" d="m543.51 204.36v52.026h-317.43" stroke-width="1.8898"/>
  <rect transform="rotate(-90)" x="-88.082" y="63.64" width="16.562" height="14.759" stroke-width=".5"/>
  <g stroke-width="1.7658">
   <path transform="matrix(.26458 0 0 .26458 -19.463 40.945)" d="m513.05 438.21-1e-5 62.859-240.06 0.26724"/>
   <path transform="matrix(.26458 0 0 .26458 -19.463 40.945)" d="m513.03 438.21"/>
   <path transform="matrix(.26458 0 0 .26458 -19.463 40.945)" d="m513.03 399.76"/>
  </g>
  <g stroke-width="1.8898">
   <path transform="matrix(.26458 0 0 .26458 -19.463 40.945)" d="m272.98 467.62 0.0595-86.352h240v18.49"/>
   <path transform="matrix(.26458 0 0 .26458 -19.463 40.945)" d="m651.98 554.21v8.4492h-138.95v-124.45"/>
   <path transform="matrix(.26458 0 0 .26458 -19.463 40.945)" d="m651.98 430.32v85.441"/>
   <path transform="matrix(.26458 0 0 .26458 -19.463 40.945)" d="m650.86 381.28h1.1211l-2e-5 10.584"/>
  </g>
  <g stroke-width="1.896">
   <path transform="matrix(.26458 0 0 .26458 -19.463 40.945)" d="m543.51 155.53-1e-5 29.192"/>
   <path transform="matrix(.26458 0 0 .26458 -19.463 40.945)" d="m543.51 108.66 2e-5 27.237"/>
   <path transform="matrix(.26458 0 0 .26458 -19.463 40.945)" d="m227.22 82.015h316.29v7.0157"/>
   <path transform="matrix(.26458 0 0 .26458 -19.463 40.945)" d="m206.45 256.38h-11.543v-174.37l12.687-2e-6"/>
   <path transform="matrix(.26458 0 0 .26458 -19.463 40.945)" d="m651.68 344.36v36.92h-0.82575"/>
   <path transform="matrix(.26458 0 0 .26458 -19.463 40.945)" d="m596.59 34.935h55.09v270.97"/>
   <path transform="matrix(.26458 0 0 .26458 -19.463 40.945)" d="m543.48 89.031v-54.096l33.471 1e-6"/>
   <path transform="matrix(.26458 0 0 .26458 -19.463 40.945)" d="m543.48 294.71 2e-5 -90.353"/>
   <path transform="matrix(.26458 0 0 .26458 -19.463 40.945)" d="m544.35 381.28h-0.86309l-1e-5 -48.115"/>
  </g>
  <path d="m116.27 146.72v-4.892h8.2756" stroke-width=".49424"/>
  <g stroke-width="1.8898">
   <path transform="matrix(.26458 0 0 .26458 -19.463 40.945)" d="m651.68 515.76 2e-5 -85.441"/>
   <path transform="matrix(.26458 0 0 .26458 -19.463 40.945)" d="m651.68 391.86v-10.023h159.26v181.26h-159.26v-8.8848"/>
   <path transform="matrix(.26458 0 0 .26458 -19.463 40.945)" d="m129.26 360.02v211.08h-87.632v-492.87h87.632v243.33"/>
  </g>
  <path transform="matrix(.26458 0 0 .26458 -19.463 40.945)" d="m260.72 148.17-1e-5 -33.178h53.369v63.75h-53.369v-10.939" stroke-width=".76281"/>
  <g stroke-width=".75591">
   <path transform="matrix(.26458 0 0 .26458 -19.463 40.945)" d="m78.871 450.65v6.3497h-36.725v-33.717h36.725l-1e-6 7.7345"/>
   <path transform="matrix(.26458 0 0 .26458 -19.463 40.945)" d="m78.871 415.49v7.7907h-36.725v-33.717h36.725l-1e-6 6.2947"/>
   <path transform="matrix(.26458 0 0 .26458 -19.463 40.945)" d="m78.871 381.3-1e-6 8.2697h-36.725v-33.717h36.725l3e-6 5.8165"/>
   <path transform="matrix(.26458 0 0 .26458 -19.463 40.945)" d="m78.871 351.11v4.7364h-36.725v-33.717h36.725v9.3478"/>
   <path transform="matrix(.26458 0 0 .26458 -19.463 40.945)" d="m78.871 316.92v5.2166h-36.725v-33.717h36.725v8.8688"/>
   <path transform="matrix(.26458 0 0 .26458 -19.463 40.945)" d="m78.871 281.76v6.6564h-36.725v-33.717h36.725v7.4279"/>
   <path transform="matrix(.26458 0 0 .26458 -19.463 40.945)" d="m78.871 247.56-1e-6 7.1368h-36.725v-33.717h36.725l2e-6 6.9493"/>
   <path transform="matrix(.26458 0 0 .26458 -19.463 40.945)" d="m78.871 214.56 1e-6 6.4181h-36.725v-33.717h36.725l-2e-6 7.6662"/>
   <path transform="matrix(.26458 0 0 .26458 -19.463 40.945)" d="m78.871 179.66 1e-6 7.5993h-36.725v-33.717h36.725l-3e-6 6.4861"/>
  </g>
  <path d="m1.378 70.016v11.506h-9.6416v-19.96h9.6416v3.2587" stroke-width=".20023"/>
  <g stroke-width=".75591">
   <path transform="matrix(.26458 0 0 .26458 -19.463 40.945)" d="m236.26 524.84-1e-5 -23.502h36.725v67.435h-36.725v-24.299"/>
   <path transform="matrix(.26458 0 0 .26458 -19.463 40.945)" d="m272.98 501.34h-36.725"/>
   <path transform="matrix(.26458 0 0 .26458 -19.463 40.945)" d="m236.26 467.62h36.725"/>
   <path transform="matrix(.26458 0 0 .26458 -19.463 40.945)" d="m236.26 424.7v-24.514h36.725v67.435h-36.725l1e-5 -23.288"/>
   <path transform="matrix(.26458 0 0 .26458 -19.463 40.945)" d="m236.26 372.67v-6.199h36.725v33.717h-36.725l1e-5 -7.8864"/>
   <path transform="matrix(.26458 0 0 .26458 -19.463 40.945)" d="m236.41 308.95v-9.5174h36.421v66.881h-36.421v-37.732"/>
   <path transform="matrix(.26458 0 0 .26458 -19.463 40.945)" d="m78.871 484.85-1e-6 5.8692h-36.725v-33.717h36.725l3e-6 8.215"/>
   <path transform="matrix(.26458 0 0 .26458 -19.463 40.945)" d="m308.58 213.64h17.881v42.848h-53.584v-42.848h16.07"/>
   <path transform="matrix(.26458 0 0 .26458 -19.463 40.945)" d="m363.09 213.64h16.955v42.848h-53.584v-42.848h16.998"/>
   <path transform="matrix(.26458 0 0 .26458 -19.463 40.945)" d="m416.97 213.64h16.658v42.848h-53.584v-42.848h17.295"/>
  </g>
  <path d="m121.27 97.5h2.9492v11.251h-28.897v-11.251h20.753" stroke-width=".20025"/>
  <g stroke-width=".75591">
   <path transform="matrix(.26458 0 0 .26458 -19.463 40.945)" d="m333.18 466.87h6.4064v33.717h-36.725v-33.717l10.686-1e-5"/>
   <path transform="matrix(.26458 0 0 .26458 -19.463 40.945)" d="m366.06 466.87h10.246v33.717h-36.725v-33.717l6.8474-1e-5"/>
   <path transform="matrix(.26458 0 0 .26458 -19.463 40.945)" d="m403.44 466.87h9.59v33.717h-36.725v-33.717h7.5021"/>
   <path transform="matrix(.26458 0 0 .26458 -19.463 40.945)" d="m440.33 466.87 9.424 1e-5v33.717h-36.725v-33.717l7.6681-1e-5"/>
   <path transform="matrix(.26458 0 0 .26458 -19.463 40.945)" d="m477.71 466.87h8.7692v33.717h-36.725v-33.717l8.3239-1e-5"/>
   <path transform="matrix(.26458 0 0 .26458 -19.463 40.945)" d="m572.67 528.82 53.695-1e-5v33.287h-91.638v-33.287l18.31 1e-5"/>
   <path transform="matrix(.26458 0 0 .26458 -19.463 40.945)" d="m615.38 161.63v-22.178h36.073v119.15h-36.073v-77.34"/>
   <path transform="matrix(.26458 0 0 .26458 -19.463 40.945)" d="m615.34 92.736 3e-5 -57.743h36.161v104.5h-36.161l-2e-5 -27.127"/>
  </g>
  <path transform="matrix(.26458 0 0 .26458 -19.463 40.945)" d="m805.03 234.27h-55.826v-181.26h159.26v181.26h-83.799" stroke-width="1.8898"/>
  <path transform="matrix(.26458 0 0 .26458 -19.463 40.945)" d="m805.18 171.78h-9.6875v-118.08h112.9v118.08h-83.586" stroke-width=".75591"/>
  <rect transform="rotate(-90)" x="-102.94" y="178.97" width="47.882" height="11.98" stroke-width=".24694"/>
  <g stroke-width=".84969">
   <path transform="matrix(.26458 0 0 .26458 -19.463 40.945)" d="m423.25 177.69v1.0322h-22.616"/>
   <path transform="matrix(.26458 0 0 .26458 -19.463 40.945)" d="m381 178.73h-11.123v-63.616h53.372l2e-5 23.504"/>
   <path transform="matrix(.26458 0 0 .26458 -19.463 40.945)" d="m461.47 115.11h15.146v63.616h-53.372l-1e-5 -1.0322"/>
   <path transform="matrix(.26458 0 0 .26458 -19.463 40.945)" d="m423.25 138.61v-23.504h18.593"/>
   <path transform="matrix(.26458 0 0 .26458 -19.463 40.945)" d="m543.11 155.53 2e-5 23.15h-66.45v-63.528h66.45l-1e-5 20.744"/>
  </g>
 </g>
 <g>
  <ellipse cx="366.76" cy="85.43" rx="5.0593" ry="5.0735" fill="#241f1c"/>
  <rect x="182.2" y="107.9" width=".94845" height="35.404" fill="#28220b"/>
  <g fill="#241f1c">
   <rect transform="translate(19.463 -40.945)" x="321.89" y="121.59" width="9.7017" height="18.091"/>
   <rect transform="translate(19.463 -40.945)" x="321.61" y="166.32" width="9.7017" height="18.091"/>
   <rect transform="translate(19.463 -40.945)" x="343.17" y="175.24" width="9.7017" height="7.9158"/>
   <rect transform="translate(19.463 -40.945)" x="340.02" y="141.25" width="1.4662" height="23.332"/>
   <rect transform="rotate(90 30.204 -10.741)" x="141.25" y="-358.53" width="1.4662" height="17.044"/>
   <rect transform="rotate(90 30.204 -10.741)" x="163.11" y="-358.32" width="1.4662" height="16.828"/>
  </g>
  <rect x="192.2" y="107.9" width=".94845" height="35.404" fill="#28220b"/>
  <rect x="202.2" y="107.9" width=".94845" height="35.404" fill="#28220b"/>
 </g>
</svg>
