<?xml version="1.0" encoding="UTF-8" standalone="no"?>
<svg
   xmlns:dc="http://purl.org/dc/elements/1.1/"
   xmlns:cc="http://creativecommons.org/ns#"
   xmlns:rdf="http://www.w3.org/1999/02/22-rdf-syntax-ns#"
   xmlns:svg="http://www.w3.org/2000/svg"
   xmlns="http://www.w3.org/2000/svg"
   xmlns:sodipodi="http://sodipodi.sourceforge.net/DTD/sodipodi-0.dtd"
   xmlns:inkscape="http://www.inkscape.org/namespaces/inkscape"
   sodipodi:docname="layout_doors.svg"
   inkscape:version="1.0 (4035a4fb49, 2020-05-01)"
   id="svg8"
   version="1.1"
   viewBox="0 0 249.01333 169.89639"
   height="169.89639mm"
   width="249.01332mm">
  <defs
     id="defs2" />
  <sodipodi:namedview
     inkscape:window-maximized="1"
     inkscape:window-y="0"
     inkscape:window-x="0"
     inkscape:window-height="1016"
     inkscape:window-width="1920"
     showguides="false"
     showgrid="false"
     inkscape:document-rotation="0"
     inkscape:current-layer="layer1"
     inkscape:document-units="mm"
     inkscape:cy="342.96074"
     inkscape:cx="320.23607"
     inkscape:zoom="2.3146924"
     inkscape:pageshadow="2"
     inkscape:pageopacity="0.0"
     borderopacity="1.0"
     bordercolor="#666666"
     pagecolor="#ffffff"
     id="base" />
  <metadata
     id="metadata5">
    <rdf:RDF>
      <cc:Work
         rdf:about="">
        <dc:format>image/svg+xml</dc:format>
        <dc:type
           rdf:resource="http://purl.org/dc/dcmitype/StillImage" />
        <dc:title></dc:title>
      </cc:Work>
    </rdf:RDF>
  </metadata>
  <g
     transform="translate(19.463449,-40.945328)"
     inkscape:label="outer"
     id="layer3"
     inkscape:groupmode="layer" />
  <g
     transform="translate(19.463449,-40.945328)"
     id="layer1"
     inkscape:groupmode="layer"
     inkscape:label="outline">
    <path
       transform="matrix(0.26458333,0,0,0.26458333,-19.463449,40.945328)"
       d="M 226.07851 256.38165 L 272.9842 256.38165 L 272.98419 264.05351 "
       style="fill:none;stroke:#000000;stroke-width:1.88976;stroke-miterlimit:4;stroke-dasharray:none;stroke-opacity:1"
       id="path2580" />
    <path
       transform="matrix(0.26458333,0,0,0.26458333,-19.463449,40.945328)"
       d="M 204.9694 568.77192 L 194.90312 568.77192 L 194.90312 568.77192 L 194.90312 359.19013 "
       style="fill:none;stroke:#000000;stroke-width:1.95014;stroke-miterlimit:4;stroke-dasharray:none;stroke-opacity:1"
       id="rect12" />
    <path
       transform="matrix(0.26458333,0,0,0.26458333,-19.463449,40.945328)"
       d="M 272.98422 494.06107 L 272.98422 568.77192 L 224.60198 568.77192 "
       style="fill:none;stroke:#000000;stroke-width:1.95014;stroke-miterlimit:4;stroke-dasharray:none;stroke-opacity:1"
       id="path2718" />
    <path
       transform="matrix(0.26458333,0,0,0.26458333,-19.463449,40.945328)"
       d="M 272.98421 292.22144 L 272.98421 474.43023 "
       style="fill:none;stroke:#000000;stroke-width:1.95014;stroke-miterlimit:4;stroke-dasharray:none;stroke-opacity:1"
       id="path2707" />
    <path
       transform="matrix(0.26458333,0,0,0.26458333,-19.463449,40.945328)"
       d="M 194.90311 320.73707 L 194.9031 256.38165 L 206.44593 256.38164 "
       style="fill:none;stroke:#000000;stroke-width:1.88976;stroke-miterlimit:4;stroke-dasharray:none;stroke-opacity:1"
       id="rect14" />
    <path
       transform="matrix(0.26458333,0,0,0.26458333,-19.463449,40.945328)"
       d="M 543.51037 204.35545 L 543.51037 256.3812 L 226.07888 256.3812 "
       style="fill:none;stroke:#000000;stroke-width:1.88976;stroke-miterlimit:4;stroke-dasharray:none;stroke-opacity:1"
       id="path2974" />
    <rect
       transform="rotate(-90)"
       y="63.64016"
       x="-88.082237"
       height="14.759164"
       width="16.562117"
       id="rect16"
       style="fill:none;stroke:#000000;stroke-width:0.5;stroke-miterlimit:4;stroke-dasharray:none;stroke-opacity:1" />
    <path
       transform="matrix(0.26458333,0,0,0.26458333,-19.463449,40.945328)"
       d="M 513.04744 438.21069 L 513.04743 501.07 L 273.0437 501.07 L 273.0437 494.06023 "
       style="fill:none;stroke:#000000;stroke-width:1.76579;stroke-miterlimit:4;stroke-dasharray:none;stroke-opacity:1"
       id="rect20" />
    <path
       transform="matrix(0.26458333,0,0,0.26458333,-19.463449,40.945328)"
       d="M 513.02508 438.21131 L 513.02508 438.21131 "
       style="fill:none;stroke:#000000;stroke-width:1.76579;stroke-miterlimit:4;stroke-dasharray:none;stroke-opacity:1"
       id="path2778" />
    <path
       transform="matrix(0.26458333,0,0,0.26458333,-19.463449,40.945328)"
       d="M 513.02508 399.75844 L 513.02508 399.75844 "
       style="fill:none;stroke:#000000;stroke-width:1.76579;stroke-miterlimit:4;stroke-dasharray:none;stroke-opacity:1"
       id="path2786" />
    <path
       transform="matrix(0.26458333,0,0,0.26458333,-19.463449,40.945328)"
       d="M 273.04369 474.4294 L 273.0437 381.26737 L 513.04743 381.26737 L 513.04743 399.75758 "
       style="fill:none;stroke:#000000;stroke-width:1.88976;stroke-miterlimit:4;stroke-dasharray:none;stroke-opacity:1"
       id="path2831" />
    <path
       transform="matrix(0.26458333,0,0,0.26458333,-19.463449,40.945328)"
       d="M 651.97793 554.21047 L 651.97793 562.65962 L 513.02507 562.65962 L 513.02507 438.2113 "
       style="fill:none;stroke:#000000;stroke-width:1.88976;stroke-miterlimit:4;stroke-dasharray:none;stroke-opacity:1"
       id="path2829" />
    <path
       transform="matrix(0.26458333,0,0,0.26458333,-19.463449,40.945328)"
       d="M 651.97794 430.31682 L 651.97794 515.75761 "
       style="fill:none;stroke:#000000;stroke-width:1.88976;stroke-miterlimit:4;stroke-dasharray:none;stroke-opacity:1"
       id="path2908" />
    <path
       transform="matrix(0.26458333,0,0,0.26458333,-19.463449,40.945328)"
       d="M 650.85685 381.28007 L 651.97794 381.28007 L 651.97792 391.86396 "
       style="fill:none;stroke:#000000;stroke-width:1.88976;stroke-miterlimit:4;stroke-dasharray:none;stroke-opacity:1"
       id="path2876" />
    <path
       transform="matrix(0.26458333,0,0,0.26458333,-19.463449,40.945328)"
       d="M 543.51036 155.5309 L 543.51035 184.72251 "
       style="fill:none;stroke:#000000;stroke-width:1.89603;stroke-miterlimit:4;stroke-dasharray:none;stroke-opacity:1"
       id="path2823" />
    <path
       transform="matrix(0.26458333,0,0,0.26458333,-19.463449,40.945328)"
       d="M 543.51035 108.66143 L 543.51037 135.89795 "
       style="fill:none;stroke:#000000;stroke-width:1.89603;stroke-miterlimit:4;stroke-dasharray:none;stroke-opacity:1"
       id="path3111" />
    <path
       transform="matrix(0.26458333,0,0,0.26458333,-19.463449,40.945328)"
       d="M 227.22144 82.014766 L 543.51035 82.014766 L 543.51035 89.030439 "
       style="fill:none;stroke:#000000;stroke-width:1.89603;stroke-miterlimit:4;stroke-dasharray:none;stroke-opacity:1"
       id="path3087" />
    <path
       transform="matrix(0.26458333,0,0,0.26458333,-19.463449,40.945328)"
       d="M 206.44606 256.3812 L 194.9031 256.3812 L 194.9031 256.3812 L 194.9031 82.014766 L 207.59059 82.014764 "
       style="fill:none;stroke:#000000;stroke-width:1.89603;stroke-miterlimit:4;stroke-dasharray:none;stroke-opacity:1"
       id="path3155" />
    <path
       transform="matrix(0.26458333,0,0,0.26458333,-19.463449,40.945328)"
       d="M 651.67805 344.35881 L 651.67805 381.27871 L 650.8523 381.27871 "
       style="fill:none;stroke:#000000;stroke-width:1.89603;stroke-miterlimit:4;stroke-dasharray:none;stroke-opacity:1"
       id="path3085" />
    <path
       transform="matrix(0.26458333,0,0,0.26458333,-19.463449,40.945328)"
       d="M 596.58772 34.935326 L 651.67805 34.935326 L 651.67805 305.90574 "
       style="fill:none;stroke:#000000;stroke-width:1.89603;stroke-miterlimit:4;stroke-dasharray:none;stroke-opacity:1"
       id="path3139" />
    <path
       transform="matrix(0.26458333,0,0,0.26458333,-19.463449,40.945328)"
       d="M 543.48372 89.031016 L 543.48372 34.935326 L 576.95475 34.935327 "
       style="fill:none;stroke:#000000;stroke-width:1.89603;stroke-miterlimit:4;stroke-dasharray:none;stroke-opacity:1"
       id="path3127" />
    <path
       transform="matrix(0.26458333,0,0,0.26458333,-19.463449,40.945328)"
       d="M 543.48371 294.70872 L 543.48373 204.35524 "
       style="fill:none;stroke:#000000;stroke-width:1.89603;stroke-miterlimit:4;stroke-dasharray:none;stroke-opacity:1"
       id="path2964" />
    <path
       transform="matrix(0.26458333,0,0,0.26458333,-19.463449,40.945328)"
       d="M 544.34682 381.27905 L 543.48373 381.27905 L 543.48373 381.27905 L 543.48372 333.16381 "
       style="fill:none;stroke:#000000;stroke-width:1.89603;stroke-miterlimit:4;stroke-dasharray:none;stroke-opacity:1"
       id="path3133" />
    <path
       d="m 116.27006,146.71626 v -4.89195 h 8.27555"
       style="fill:none;stroke:#000000;stroke-width:0.494243;stroke-miterlimit:4;stroke-dasharray:none;stroke-opacity:1"
       id="path2870" />
    <path
       transform="matrix(0.26458333,0,0,0.26458333,-19.463449,40.945328)"
       d="M 651.67819 515.75703 L 651.67821 430.31574 "
       style="fill:none;stroke:#000000;stroke-width:1.88976;stroke-miterlimit:4;stroke-dasharray:none;stroke-opacity:1"
       id="path2868" />
    <path
       transform="matrix(0.26458333,0,0,0.26458333,-19.463449,40.945328)"
       d="M 651.67821 391.86267 L 651.67821 381.83925 L 810.93696 381.83925 L 810.93696 563.09487 L 651.67821 563.09487 L 651.67821 554.21012 "
       style="fill:none;stroke:#000000;stroke-width:1.88976;stroke-miterlimit:4;stroke-dasharray:none;stroke-opacity:1"
       id="path2902" />
    <path
       transform="matrix(0.26458333,0,0,0.26458333,-19.463449,40.945328)"
       d="M 129.25564 360.01826 L 129.25564 571.10011 L 41.623667 571.10011 L 41.623667 571.10011 L 41.623667 78.231364 L 129.25564 78.231364 L 129.25564 321.56516 "
       style="fill:none;stroke:#000000;stroke-width:1.88976;stroke-miterlimit:4;stroke-dasharray:none;stroke-opacity:1"
       id="rect860" />
    <path
       transform="matrix(0.26458333,0,0,0.26458333,-19.463449,40.945328)"
       d="M 260.72207 148.17076 L 260.72206 114.993 L 314.09071 114.993 L 314.09071 178.74303 L 260.72206 178.74303 L 260.72206 178.74303 L 260.72206 167.80357 "
       style="fill:none;stroke:#000000;stroke-width:0.762811;stroke-miterlimit:4;stroke-dasharray:none;stroke-opacity:1"
       id="rect862" />
    <path
       transform="matrix(0.26458333,0,0,0.26458333,-19.463449,40.945328)"
       d="M 78.870667 450.65228 L 78.870667 457.002 L 42.145467 457.002 L 42.145467 457.002 L 42.145467 423.28461 L 78.870667 423.28461 L 78.870666 431.01911 "
       style="fill:none;stroke:#000000;stroke-width:0.755906;stroke-miterlimit:4;stroke-dasharray:none;stroke-opacity:1"
       id="rect862-6" />
    <path
       transform="matrix(0.26458333,0,0,0.26458333,-19.463449,40.945328)"
       d="M 78.870667 415.4939 L 78.870667 423.28461 L 42.145467 423.28461 L 42.145467 423.28461 L 42.145467 389.56721 L 78.870667 389.56721 L 78.870666 395.86188 "
       style="fill:none;stroke:#000000;stroke-width:0.755906;stroke-miterlimit:4;stroke-dasharray:none;stroke-opacity:1"
       id="rect862-7" />
    <path
       transform="matrix(0.26458333,0,0,0.26458333,-19.463449,40.945328)"
       d="M 78.870668 381.29758 L 78.870667 389.56725 L 42.145467 389.56725 L 42.145467 389.56725 L 42.145467 355.84986 L 78.870667 355.84986 L 78.87067 361.66638 "
       style="fill:none;stroke:#000000;stroke-width:0.755906;stroke-miterlimit:4;stroke-dasharray:none;stroke-opacity:1"
       id="rect862-6-5" />
    <path
       transform="matrix(0.26458333,0,0,0.26458333,-19.463449,40.945328)"
       d="M 78.870667 351.11341 L 78.870667 355.84982 L 42.145467 355.84982 L 42.145467 355.84982 L 42.145467 322.13243 L 78.870667 322.13243 L 78.870667 331.48025 "
       style="fill:none;stroke:#000000;stroke-width:0.755906;stroke-miterlimit:4;stroke-dasharray:none;stroke-opacity:1"
       id="rect862-3" />
    <path
       transform="matrix(0.26458333,0,0,0.26458333,-19.463449,40.945328)"
       d="M 78.870667 316.91584 L 78.870667 322.13243 L 42.145467 322.13243 L 42.145467 322.13243 L 42.145467 288.41504 L 78.870667 288.41504 L 78.870667 297.28382 "
       style="fill:none;stroke:#000000;stroke-width:0.755906;stroke-miterlimit:4;stroke-dasharray:none;stroke-opacity:1"
       id="rect862-6-56" />
    <path
       transform="matrix(0.26458333,0,0,0.26458333,-19.463449,40.945328)"
       d="M 78.870667 281.75863 L 78.870667 288.415 L 42.145467 288.415 L 42.145467 288.415 L 42.145467 254.69761 L 78.870667 254.69761 L 78.870667 262.12547 "
       style="fill:none;stroke:#000000;stroke-width:0.755906;stroke-miterlimit:4;stroke-dasharray:none;stroke-opacity:1"
       id="rect862-7-2" />
    <path
       transform="matrix(0.26458333,0,0,0.26458333,-19.463449,40.945328)"
       d="M 78.870668 247.5608 L 78.870667 254.69765 L 42.145467 254.69765 L 42.145467 254.69765 L 42.145467 220.98027 L 78.870667 220.98027 L 78.870669 227.92961 "
       style="fill:none;stroke:#000000;stroke-width:0.755906;stroke-miterlimit:4;stroke-dasharray:none;stroke-opacity:1"
       id="rect862-6-5-9" />
    <path
       transform="matrix(0.26458333,0,0,0.26458333,-19.463449,40.945328)"
       d="M 78.870674 214.56222 L 78.870675 220.9803 L 42.145474 220.9803 L 42.145474 220.9803 L 42.145474 187.26291 L 78.870675 187.26291 L 78.870673 194.92906 "
       style="fill:none;stroke:#000000;stroke-width:0.755906;stroke-miterlimit:4;stroke-dasharray:none;stroke-opacity:1"
       id="rect862-1" />
    <path
       transform="matrix(0.26458333,0,0,0.26458333,-19.463449,40.945328)"
       d="M 78.870674 179.66358 L 78.870675 187.26288 L 42.145474 187.26288 L 42.145474 187.26288 L 42.145474 153.5455 L 78.870675 153.5455 L 78.870672 160.03156 "
       style="fill:none;stroke:#000000;stroke-width:0.755906;stroke-miterlimit:4;stroke-dasharray:none;stroke-opacity:1"
       id="rect862-6-2" />
    <path
       d="m 1.3779877,70.015763 v 11.506308 h -9.6416225 v 0 -19.959563 h 9.6416225 v 3.258725"
       style="fill:none;stroke:#000000;stroke-width:0.200233;stroke-miterlimit:4;stroke-dasharray:none;stroke-opacity:1"
       id="rect862-7-7" />
    <path
       transform="matrix(0.26458333,0,0,0.26458333,-19.463449,40.945328)"
       d="M 236.25901 524.83957 L 236.259 501.33718 L 272.9842 501.33718 L 272.9842 568.77196 L 236.259 568.77196 L 236.259 568.77196 L 236.259 544.47271 "
       style="fill:none;stroke:#000000;stroke-width:0.755906;stroke-miterlimit:4;stroke-dasharray:none;stroke-opacity:1"
       id="rect862-36" />
    <path
       transform="matrix(0.26458333,0,0,0.26458333,-19.463449,40.945328)"
       d="M 272.9842 494.06019 L 272.9842 501.33724 L 236.259 501.33724 L 236.259 501.33724 L 236.259 494.06019 "
       style="fill:none;stroke:#000000;stroke-width:0.755906;stroke-miterlimit:4;stroke-dasharray:none;stroke-opacity:1"
       id="rect862-7-6" />
    <path
       transform="matrix(0.26458333,0,0,0.26458333,-19.463449,40.945328)"
       d="M 236.259 474.43013 L 236.259 467.61985 L 272.9842 467.61985 L 272.9842 474.43013 "
       style="fill:none;stroke:#000000;stroke-width:0.755906;stroke-miterlimit:4;stroke-dasharray:none;stroke-opacity:1"
       id="path2697" />
    <path
       transform="matrix(0.26458333,0,0,0.26458333,-19.463449,40.945328)"
       d="M 236.259 424.69915 L 236.259 400.18504 L 272.9842 400.18504 L 272.9842 467.61982 L 236.259 467.61982 L 236.259 467.61982 L 236.25901 444.33232 "
       style="fill:none;stroke:#000000;stroke-width:0.755906;stroke-miterlimit:4;stroke-dasharray:none;stroke-opacity:1"
       id="rect862-6-5-2" />
    <path
       transform="matrix(0.26458333,0,0,0.26458333,-19.463449,40.945328)"
       d="M 236.259 372.66662 L 236.259 366.46765 L 272.9842 366.46765 L 272.9842 400.18504 L 236.259 400.18504 L 236.259 400.18504 L 236.25901 392.29865 "
       style="fill:none;stroke:#000000;stroke-width:0.755906;stroke-miterlimit:4;stroke-dasharray:none;stroke-opacity:1"
       id="rect862-6-56-1" />
    <path
       transform="matrix(0.26458333,0,0,0.26458333,-19.463449,40.945328)"
       d="M 236.41114 308.95168 L 236.41114 299.43433 L 272.83205 299.43433 L 272.83205 366.31556 L 236.41114 366.31556 L 236.41114 366.31556 L 236.41114 328.58403 "
       style="fill:none;stroke:#000000;stroke-width:0.755906;stroke-miterlimit:4;stroke-dasharray:none;stroke-opacity:1"
       id="rect862-7-2-8" />
    <path
       transform="matrix(0.26458333,0,0,0.26458333,-19.463449,40.945328)"
       d="M 78.870668 484.85012 L 78.870667 490.71935 L 42.145467 490.71935 L 42.145467 490.71935 L 42.145467 457.002 L 78.870667 457.002 L 78.87067 465.21699 "
       style="fill:none;stroke:#000000;stroke-width:0.755906;stroke-miterlimit:4;stroke-dasharray:none;stroke-opacity:1"
       id="rect862-73" />
    <path
       transform="matrix(0.26458333,0,0,0.26458333,-19.463449,40.945328)"
       d="M 308.58137 213.63979 L 326.46234 213.63979 L 326.46234 256.48782 L 272.87802 256.48782 L 272.87802 256.48782 L 272.87802 213.63979 L 288.94843 213.63979 "
       style="fill:none;stroke:#000000;stroke-width:0.755906;stroke-miterlimit:4;stroke-dasharray:none;stroke-opacity:1"
       id="rect862-61" />
    <path
       transform="matrix(0.26458333,0,0,0.26458333,-19.463449,40.945328)"
       d="M 363.09149 213.63979 L 380.04667 213.63979 L 380.04667 256.48782 L 326.46235 256.48782 L 326.46235 256.48782 L 326.46235 213.63979 L 343.46051 213.63979 "
       style="fill:none;stroke:#000000;stroke-width:0.755906;stroke-miterlimit:4;stroke-dasharray:none;stroke-opacity:1"
       id="rect862-61-2" />
    <path
       transform="matrix(0.26458333,0,0,0.26458333,-19.463449,40.945328)"
       d="M 416.9727 213.63979 L 433.631 213.63979 L 433.631 256.48782 L 380.04668 256.48782 L 380.04668 256.48782 L 380.04668 213.63979 L 397.34171 213.63979 "
       style="fill:none;stroke:#000000;stroke-width:0.755906;stroke-miterlimit:4;stroke-dasharray:none;stroke-opacity:1"
       id="rect862-61-2-9" />
    <path
       d="m 121.27303,97.499703 h 2.94917 V 108.75048 H 95.325338 v 0 -11.250777 h 20.753192"
       style="fill:none;stroke:#000000;stroke-width:0.200253;stroke-miterlimit:4;stroke-dasharray:none;stroke-opacity:1"
       id="rect862-61-2-3" />
    <path
       transform="matrix(0.26458333,0,0,0.26458333,-19.463449,40.945328)"
       d="M 333.17665 466.87129 L 339.58301 466.87129 L 339.58301 500.58868 L 302.85781 500.58868 L 302.85781 500.58868 L 302.85781 466.87129 L 313.54352 466.87128 "
       style="fill:none;stroke:#000000;stroke-width:0.755906;stroke-miterlimit:4;stroke-dasharray:none;stroke-opacity:1"
       id="rect862-73-7" />
    <path
       transform="matrix(0.26458333,0,0,0.26458333,-19.463449,40.945328)"
       d="M 366.06248 466.87129 L 376.3082 466.87129 L 376.3082 500.58868 L 339.583 500.58868 L 339.583 500.58868 L 339.583 466.87129 L 346.43039 466.87128 "
       style="fill:none;stroke:#000000;stroke-width:0.755906;stroke-miterlimit:4;stroke-dasharray:none;stroke-opacity:1"
       id="rect862-73-7-8" />
    <path
       transform="matrix(0.26458333,0,0,0.26458333,-19.463449,40.945328)"
       d="M 403.44336 466.87129 L 413.03336 466.87129 L 413.03336 500.58868 L 376.30816 500.58868 L 376.30816 500.58868 L 376.30816 466.87129 L 383.81023 466.87129 "
       style="fill:none;stroke:#000000;stroke-width:0.755906;stroke-miterlimit:4;stroke-dasharray:none;stroke-opacity:1"
       id="rect862-73-7-4" />
    <path
       transform="matrix(0.26458333,0,0,0.26458333,-19.463449,40.945328)"
       d="M 440.33456 466.87128 L 449.75855 466.87129 L 449.75855 500.58868 L 413.03335 500.58868 L 413.03335 500.58868 L 413.03335 466.87129 L 420.70143 466.87128 "
       style="fill:none;stroke:#000000;stroke-width:0.755906;stroke-miterlimit:4;stroke-dasharray:none;stroke-opacity:1"
       id="rect862-73-7-5" />
    <path
       transform="matrix(0.26458333,0,0,0.26458333,-19.463449,40.945328)"
       d="M 477.71453 466.87129 L 486.48374 466.87129 L 486.48374 500.58868 L 449.75854 500.58868 L 449.75854 500.58868 L 449.75854 466.87129 L 458.08243 466.87128 "
       style="fill:none;stroke:#000000;stroke-width:0.755906;stroke-miterlimit:4;stroke-dasharray:none;stroke-opacity:1"
       id="rect862-73-7-0" />
    <path
       transform="matrix(0.26458333,0,0,0.26458333,-19.463449,40.945328)"
       d="M 572.67421 528.8181 L 626.36934 528.81809 L 626.36934 562.10495 L 534.73096 562.10495 L 534.73096 562.10495 L 534.73096 528.81809 L 553.04146 528.8181 "
       style="fill:none;stroke:#000000;stroke-width:0.755906;stroke-miterlimit:4;stroke-dasharray:none;stroke-opacity:1"
       id="rect862-73-7-0-3" />
    <path
       transform="matrix(0.26458333,0,0,0.26458333,-19.463449,40.945328)"
       d="M 615.38475 161.63014 L 615.38475 139.45245 L 651.45758 139.45245 L 651.45758 258.60065 L 615.38475 258.60065 L 615.38475 258.60065 L 615.38475 181.26097 "
       style="fill:none;stroke:#000000;stroke-width:0.755906;stroke-miterlimit:4;stroke-dasharray:none;stroke-opacity:1"
       id="rect862-73-7-0-1" />
    <path
       transform="matrix(0.26458333,0,0,0.26458333,-19.463449,40.945328)"
       d="M 615.34084 92.736241 L 615.34087 34.993644 L 651.50146 34.993644 L 651.50146 139.49635 L 615.34087 139.49635 L 615.34087 139.49635 L 615.34085 112.3692 "
       style="fill:none;stroke:#000000;stroke-width:0.755906;stroke-miterlimit:4;stroke-dasharray:none;stroke-opacity:1"
       id="rect862-73-7-0-1-0" />
    <path
       transform="matrix(0.26458333,0,0,0.26458333,-19.463449,40.945328)"
       d="M 805.0329 234.26578 L 749.20641 234.26578 L 749.20641 234.26578 L 749.20641 53.010142 L 908.46519 53.010142 L 908.46519 234.26578 L 824.66585 234.26578 "
       style="fill:none;stroke:#000000;stroke-width:1.88976;stroke-miterlimit:4;stroke-dasharray:none;stroke-opacity:1"
       id="rect20-3-6" />
    <path
       transform="matrix(0.26458333,0,0,0.26458333,-19.463449,40.945328)"
       d="M 805.18292 171.7837 L 795.49538 171.7837 L 795.49538 171.7837 L 795.49538 53.707449 L 908.40019 53.707449 L 908.40019 171.7837 L 824.81387 171.7837 "
       style="fill:none;stroke:#000000;stroke-width:0.755906;stroke-miterlimit:4;stroke-dasharray:none;stroke-opacity:1"
       id="rect862-73-7-0-1-3" />
    <rect
       transform="rotate(-90)"
       y="178.97163"
       x="-102.93914"
       height="11.979708"
       width="47.881809"
       id="rect862-73-7-0-1-3-9"
       style="fill:none;stroke:#000000;stroke-width:0.246942;stroke-miterlimit:4;stroke-dasharray:none;stroke-opacity:1" />
    <path
       transform="matrix(0.26458333,0,0,0.26458333,-19.463449,40.945328)"
       d="M 423.24703 177.6946 L 423.24703 178.72678 L 400.63141 178.72678 "
       style="fill:none;stroke:#000000;stroke-width:0.849694;stroke-miterlimit:4;stroke-dasharray:none;stroke-opacity:1"
       id="rect862-4-4" />
    <path
       transform="matrix(0.26458333,0,0,0.26458333,-19.463449,40.945328)"
       d="M 380.99828 178.72678 L 369.87504 178.72678 L 369.87504 178.72678 L 369.87504 115.11084 L 423.24703 115.11084 L 423.24705 138.61474 "
       style="fill:none;stroke:#000000;stroke-width:0.849694;stroke-miterlimit:4;stroke-dasharray:none;stroke-opacity:1"
       id="path3107" />
    <path
       transform="matrix(0.26458333,0,0,0.26458333,-19.463449,40.945328)"
       d="M 461.47283 115.11084 L 476.61902 115.11084 L 476.61902 178.72678 L 423.24701 178.72678 L 423.24701 178.72678 L 423.247 177.6946 "
       style="fill:none;stroke:#000000;stroke-width:0.849694;stroke-miterlimit:4;stroke-dasharray:none;stroke-opacity:1"
       id="path3105" />
    <path
       transform="matrix(0.26458333,0,0,0.26458333,-19.463449,40.945328)"
       d="M 423.24701 138.61474 L 423.24701 115.11084 L 441.8404 115.11084 "
       style="fill:none;stroke:#000000;stroke-width:0.849694;stroke-miterlimit:4;stroke-dasharray:none;stroke-opacity:1"
       id="path3103" />
    <path
       transform="matrix(0.26458333,0,0,0.26458333,-19.463449,40.945328)"
       d="M 543.11211 155.53211 L 543.11213 178.68259 L 476.66252 178.68259 L 476.66252 115.15502 L 543.11213 115.15502 L 543.11212 135.89923 "
       style="fill:none;stroke:#000000;stroke-width:0.849694;stroke-miterlimit:4;stroke-dasharray:none;stroke-opacity:1"
       id="path3101" />
  </g>
  <g
     transform="translate(19.463449,-40.945328)"
     style="display:inline"
     inkscape:label="doors"
     id="layer2"
     inkscape:groupmode="layer" />
</svg>
