<?xml version="1.0" encoding="UTF-8" standalone="no"?>
<svg
   xmlns:dc="http://purl.org/dc/elements/1.1/"
   xmlns:cc="http://creativecommons.org/ns#"
   xmlns:rdf="http://www.w3.org/1999/02/22-rdf-syntax-ns#"
   xmlns:svg="http://www.w3.org/2000/svg"
   xmlns="http://www.w3.org/2000/svg"
   xmlns:sodipodi="http://sodipodi.sourceforge.net/DTD/sodipodi-0.dtd"
   xmlns:inkscape="http://www.inkscape.org/namespaces/inkscape"
   width="131.89174mm"
   height="131.94051mm"
   viewBox="0 0 131.89174 131.94051"
   version="1.1"
   id="svg851"
   inkscape:version="1.0 (4035a4fb49, 2020-05-01)"
   sodipodi:docname="hochschule_icon.svg">
  <defs
     id="defs845" />
  <sodipodi:namedview
     id="base"
     pagecolor="#ffffff"
     bordercolor="#666666"
     borderopacity="1.0"
     inkscape:pageopacity="0.0"
     inkscape:pageshadow="2"
     inkscape:zoom="0.41625359"
     inkscape:cx="152.06705"
     inkscape:cy="563.73876"
     inkscape:document-units="mm"
     inkscape:current-layer="layer1"
     inkscape:document-rotation="0"
     showgrid="false"
     inkscape:window-width="1920"
     inkscape:window-height="1016"
     inkscape:window-x="0"
     inkscape:window-y="0"
     inkscape:window-maximized="1" />
  <metadata
     id="metadata848">
    <rdf:RDF>
      <cc:Work
         rdf:about="">
        <dc:format>image/svg+xml</dc:format>
        <dc:type
           rdf:resource="http://purl.org/dc/dcmitype/StillImage" />
        <dc:title />
      </cc:Work>
    </rdf:RDF>
  </metadata>
  <g
     inkscape:label="Layer 1"
     inkscape:groupmode="layer"
     id="layer1"
     transform="translate(-44.293252,-71.66623)">
    <path
       id="path6"
       style="display:inline;fill:#ffffff;fill-opacity:1;fill-rule:nonzero;stroke:none;stroke-width:1.6481"
       d="m 95.138424,73.306745 c -8.190711,1.986786 -11.207577,8.57789 -9.221181,16.767075 2.129961,8.782172 8.43331,18.00453 16.383087,22.34631 2.71673,1.47559 5.99842,2.53772 9.08588,3.05476 l -0.57374,-2.14892 c -4.50446,-0.83637 -13.949146,-10.82806 -16.89555,-23.826501 -1.962654,-8.091142 0.381743,-12.720293 5.216397,-13.893191 0.711186,-0.172413 1.448103,-0.226787 2.107693,-0.201063 l -0.59097,-2.250472 c -2.192018,-0.233162 -4.095079,-0.191581 -5.511616,0.152002 z m 20.098766,-0.695304 c -5.06066,1.228018 -8.30447,5.571527 -9.27836,11.814003 -1.39296,8.926056 0.92811,19.879256 6.60889,26.930906 1.94443,2.40224 4.51949,4.59368 7.17343,6.2526 l 0.35747,-2.20252 c -3.83999,-2.49594 -8.75525,-15.33099 -6.50339,-28.463762 1.28332,-8.223802 5.20596,-11.626514 10.11946,-10.859745 0.72306,0.112831 1.39246,0.378307 1.99172,0.654461 l 0.33163,-2.354845 c -1.93527,-1.054159 -3.68896,-1.673497 -5.12828,-1.898181 -2.08118,-0.324732 -3.98568,-0.282257 -5.67257,0.127083 z m -38.523344,9.0991 c -2.114232,0.623257 -3.862198,1.458875 -5.039425,2.318158 -6.80639,4.969422 -7.079417,12.150475 -2.110731,18.955661 5.328368,7.2985 14.703232,13.44691 23.708728,14.41608 3.074309,0.32339 6.507078,0.074 9.557452,-0.62983 l -1.35169,-1.8079 C 96.996967,115.91359 84.437806,110.2963 76.74154,99.415127 71.832163,92.691286 72.239298,87.490002 76.256696,84.556851 c 0.591193,-0.431509 1.20701,-0.708271 1.826076,-0.936855 z m 59.288464,-2.176029 c -3.62771,0.693776 -6.85073,3.22971 -9.31737,7.275765 -4.70282,7.713969 -6.77779,18.723143 -4.22755,27.412163 0.87744,2.96384 2.40819,6.03301 4.22541,8.58142 l 1.1373,-1.91698 c -2.59289,-3.77545 -2.17181,-17.5142 4.93466,-28.785944 4.33264,-7.107019 9.23171,-8.742384 13.47809,-6.153653 0.62466,0.380864 1.19029,0.856848 1.63817,1.341354 l 1.17083,-2.027142 c -1.38447,-1.714483 -2.78908,-2.997257 -4.03312,-3.755759 -3.14747,-1.918856 -6.18487,-2.510826 -9.00642,-1.971224 z M 57.832731,98.811399 c -1.71481,1.384921 -2.997134,2.788931 -3.75576,4.033131 -4.386268,7.19557 -1.830522,13.98015 5.363936,18.36594 7.71554,4.70347 18.712576,6.72776 27.403544,4.17677 2.964064,-0.87771 5.982076,-2.39915 8.530638,-4.21678 l -1.916963,-1.13731 c -3.776503,2.59356 -17.503382,2.22314 -28.77733,-4.88389 -7.10845,-4.33331 -8.751369,-9.2816 -6.162276,-13.52885 0.381075,-0.62495 0.865491,-1.13939 1.349979,-1.58739 z M 152.55545,93.6503 c -2.52879,0.323765 -5.13492,1.479333 -7.68655,3.342147 -7.29723,5.327373 -13.3959,14.696283 -14.36531,23.700113 -0.32333,3.07404 -0.0822,6.457 0.62121,9.50667 l 1.81651,-1.30091 c -0.95052,-4.48076 4.66826,-17.04202 15.5476,-24.73664 6.7229,-4.908043 11.86616,-4.544087 14.79888,-0.527 0.43126,0.59109 0.76759,1.24932 0.99625,1.86824 l 1.85006,-1.41109 c -0.6232,-2.114 -1.39957,-3.82056 -2.25876,-4.997272 -3.10533,-4.253503 -7.10523,-5.983869 -11.31989,-5.444258 z M 47.004557,121.8066 c -1.054194,1.93566 -1.715729,3.74793 -1.940337,5.18767 -1.299083,8.3263 3.607757,13.6012 11.932463,14.90016 8.927747,1.3928 19.878304,-0.92677 26.930913,-6.60889 2.402785,-1.9452 4.644153,-4.52756 6.303369,-7.18205 l -2.193891,-0.3067 c -2.496035,3.84095 -15.388558,8.71317 -28.523167,6.46124 -8.225498,-1.28319 -11.575837,-5.21353 -10.808962,-10.12808 0.112684,-0.72304 0.327463,-1.38361 0.603678,-1.98311 z m 112.289553,-8.76995 c -0.49841,0.0851 -1.00295,0.18526 -1.51468,0.30935 -8.78093,2.12949 -18.00466,8.43491 -22.3463,16.38308 -1.47513,2.71639 -2.54635,5.94791 -3.06339,9.03511 l 2.15753,-0.52296 c 0.83639,-4.50354 10.83034,-13.94977 23.82652,-16.89556 8.08997,-1.9619 12.76287,0.32334 13.93534,5.15701 0.17255,0.71115 0.1759,1.45687 0.15029,2.11631 l 2.30125,-0.59959 c 0.23324,-2.1915 0.14071,-4.08699 -0.20278,-5.503 -1.862,-7.67744 -7.76738,-10.75622 -15.24378,-9.47975 z m -71.188583,23.47256 -2.157537,0.52296 c -0.836376,4.50351 -10.830331,13.94979 -23.826504,16.89554 -8.089949,1.96209 -12.720963,-0.38255 -13.893189,-5.2164 -0.172555,-0.71118 -0.218052,-1.39747 -0.192443,-2.05692 l -2.250476,0.59097 c -0.233195,2.19164 -0.19118,4.09556 0.151997,5.51162 1.986202,8.18936 8.570734,11.15606 16.758457,9.1704 8.780654,-2.12955 18.005207,-8.43499 22.34631,-16.38308 1.475123,-2.71637 2.546302,-5.94803 3.063385,-9.03509 z m 62.986543,-2.85602 c -5.37751,1.00067 -10.57731,3.13847 -14.54439,6.33466 -2.40253,1.94515 -4.64434,4.52796 -6.30337,7.18205 l 2.24467,0.29809 c 2.49605,-3.84083 15.33727,-8.70447 28.47239,-6.45263 8.22496,1.28324 11.62634,5.20496 10.85973,10.11947 -0.11287,0.72348 -0.37846,1.39237 -0.65445,1.99172 l 2.30407,0.34024 c 1.05399,-1.93548 1.71572,-3.74795 1.94033,-5.18767 1.29911,-8.3263 -3.60752,-13.60138 -11.93246,-14.90015 -3.90577,-0.60938 -8.20401,-0.50409 -12.38652,0.27422 z m -61.741596,11.42097 -1.76574,1.2923 c 0.950742,4.48058 -4.668255,17.04187 -15.547596,24.73663 -6.722885,4.90803 -11.916949,4.55257 -14.849652,0.53562 -0.431492,-0.59105 -0.767567,-1.24932 -0.996252,-1.86824 l -1.850059,1.41108 c 0.623192,2.11401 1.399571,3.82043 2.258762,4.99728 4.968249,6.80554 12.202128,7.06974 19.006438,2.10211 7.297229,-5.32737 13.395951,-14.69589 14.3653,-23.70011 0.323345,-3.0739 0.08245,-6.45689 -0.621201,-9.50667 z m 4.442,7.39538 -1.137313,1.91697 c 2.592646,3.7756 2.171822,17.5142 -4.934658,28.78595 -4.332648,7.10692 -9.231419,8.74246 -13.478077,6.15365 -0.624719,-0.3811 -1.19005,-0.8569 -1.638167,-1.34135 l -1.170849,2.02713 c 1.384499,1.71462 2.78909,2.99722 4.033132,3.75576 7.194207,4.38582 13.938649,1.88835 18.323791,-5.30454 4.702813,-7.71398 6.777797,-18.72302 4.227548,-27.41215 -0.877411,-2.96372 -2.408231,-6.03328 -4.225407,-8.58142 z m 43.205906,-3.36399 c -1.14728,0.17852 -2.23909,0.4024 -3.3254,0.7212 -2.96406,0.87787 -6.02444,2.45885 -8.5728,4.27618 l 1.91697,1.13732 c 3.776,-2.59353 17.50336,-2.22339 28.77733,4.88387 7.10822,4.33336 8.7514,9.28177 6.16226,13.52885 -0.38128,0.62517 -0.86554,1.13901 -1.34997,1.5874 l 2.03577,1.22162 c 1.71483,-1.38478 2.9969,-2.78876 3.75575,-4.03312 4.38653,-7.19563 1.83052,-13.98015 -5.36393,-18.36596 -6.75106,-4.11541 -16.0051,-6.20708 -24.03598,-4.95736 z m -36.26425,8.55889 -0.35749,2.20252 c 3.84007,2.49608 8.75527,15.33112 6.50341,28.46376 -1.28331,8.22379 -5.20595,11.62652 -10.119465,10.85975 -0.723065,-0.11297 -1.392502,-0.37843 -1.991729,-0.65446 l -0.33162,2.35484 c 1.935223,1.05404 3.688671,1.67354 5.12828,1.89818 8.324464,1.29911 13.652424,-3.61765 14.950924,-11.94109 1.39294,-8.92616 -0.92813,-19.87926 -6.60888,-26.9309 -1.94496,-2.40216 -4.51954,-4.59393 -7.17343,-6.2526 z m 8.34632,2.08328 0.58236,2.19969 c 4.50421,0.83639 13.94915,10.82807 16.89555,23.82651 1.9627,8.09129 -0.38195,12.7206 -5.2164,13.8932 -0.71142,0.17259 -1.39708,0.21809 -2.05691,0.19252 l 0.5402,2.2591 c 2.19178,0.23332 4.09534,0.19151 5.51162,-0.15201 8.19046,-1.98662 11.20753,-8.57815 9.22116,-16.76707 -2.12998,-8.78231 -8.43356,-18.00448 -16.38307,-22.34632 -2.71671,-1.47545 -6.00706,-2.58865 -9.0945,-3.10554 z m 8.56496,-1.24495 1.35168,1.8079 c 4.48144,-0.95101 17.04072,4.66676 24.73664,15.54759 4.90943,6.72411 4.55326,11.91633 0.53562,14.84966 -0.59121,0.43139 -1.25782,0.71677 -1.87686,0.94548 l 1.41971,1.90083 c 2.11425,-0.62336 3.81171,-1.45017 4.98865,-2.30953 6.80665,-4.96947 7.07082,-12.20112 2.10211,-19.00645 -5.32834,-7.29837 -14.6946,-13.39605 -23.7001,-14.3653 -3.07453,-0.32326 -6.50707,-0.0741 -9.55745,0.62982 z" />
  </g>
</svg>
